<svg xmlns="http://www.w3.org/2000/svg" width="256" height="256" viewBox="0 0 100 100"><rect width="100" height="100" rx="20" fill="#000000"></rect><path d="M67.94 62.99L77.37 62.99Q76.05 74.27 69.04 80.40Q62.04 86.52 50.42 86.52L50.42 86.52Q37.82 86.52 30.22 77.49Q22.63 68.46 22.63 53.32L22.63 53.32L22.63 46.48Q22.63 36.57 26.17 29.05Q29.71 21.53 36.21 17.50Q42.70 13.48 51.25 13.48L51.25 13.48Q62.57 13.48 69.41 19.80Q76.25 26.12 77.37 37.30L77.37 37.30L67.94 37.30Q66.72 28.81 62.65 25Q58.57 21.19 51.25 21.19L51.25 21.19Q42.26 21.19 37.16 27.83Q32.06 34.47 32.06 46.73L32.06 46.73L32.06 53.61Q32.06 65.19 36.89 72.02Q41.72 78.86 50.42 78.86L50.42 78.86Q58.23 78.86 62.40 75.32Q66.58 71.78 67.94 62.99L67.94 62.99Z" fill="#fff"></path></svg>